<svg xmlns="http://www.w3.org/2000/svg" viewBox="152.83 290 717.28 442.04"><path fill="#ff3434" d="m180.771 290.235 447.349-.042 150.887-.08 44.799-.021c7.764-.009 16.113-.311 23.803.232 12.652.893 22.353 12.821 22.363 25.092.018 24.563-.094 49.033-.057 73.551l-.013 171.852.103 98.806.036 30.179c.005 6.589.269 13.265-.325 19.816-1.392 15.347-13.246 22.4-27.25 22.423l-458.91-.739-139.206-.063-43.603.07c-8.341.015-16.693.149-25.02-.231-10.689-.487-21.715-10.814-22.071-21.652-.307-9.31-.166-18.814-.176-28.137l-.046-53.088-.313-153.079-.005-105.888-.11-33.909c-.036-12.501-1.894-26.926 7.286-36.754 5.931-6.348 12.221-7.973 20.479-8.338"></path><path fill="#f4d35e" d="m177.789 317.569 14.252.04c.361 24.109-.01 49.197-.025 73.384l27.457.021.008-27.578-10.823.01c-.43-14.311-.122-31.083.121-45.503 13.785-.302 28.532-.048 42.379-.051l98.125.024c.272 11.011.113 22.495.114 33.54a1132 1132 0 0 1 22.647.02c.166-11.031.024-22.469.017-33.527a3993 3993 0 0 1 42.673.153l-.035 33.831 23.69-.313c-.118-11.124-.01-22.465-.013-33.607l33.189-.034-.078 33.963a880 880 0 0 1 23.713-.113c-.221-11.065-.033-22.737-.001-33.848q16.356-.034 32.713.105l-.043 33.492 23.623-.02c-.017-10.67.252-23.027-.34-33.559l33.767.082.076 33.763c6.526-.628 16.778-.332 23.636-.305l.018-33.633c13.511-.265 27.609-.041 41.134.058l.03 32.304a507 507 0 0 1 18.206.073l-.022-32.345 30.668.015c-.208 11.304-.095 23.02-.113 34.356l16.929-.035.053-34.262q16.017-.006 32.033.149l.038 46.848 11.275.001 7.061.115-.004-47.221c14.061-.141 28.386.026 42.467.054.353 23.487.097 47.645.093 71.18 7.701-.11 15.404-.013 23.1.291l.377-71.478 12.021-.005.132 89.915c-3.877-.874-10.656-3.326-13.914-3.862-6.588-1.082-17.627-.761-24.54-.782l-44.277-.134-33.611-.212c-6.431-.043-13.137-.244-19.541.272-3.02.243-5.528 2.274-8.017 3.992.133-3.029-.554-11.124-.702-14.607 10.184-7.132 10.341-16.808 2.248-26.076-4.498-4.892-10.372-7.119-16.947-7.094-17.999.071-36.055-.482-54.042-.11-3.457.068-8.202 2.327-10.581 4.793-4.801 4.978-3.272 17.406-3.178 23.986l-35.89.045c-6.24-.025-13.03-.258-19.22.128-11.327.707-14.786 7.836-21.485 15.898l-59.29-.096c-7.187-19.576-20.694-16.254-37.752-16.179l-38.764.097-42.329.018c-16.882-.036-36.644-4.073-42.198 16.981-47.396.55-94.798.436-142.19-.342-.901-27.47-.131-59.376-.118-87.066"></path><path fill="#ff3434" d="M265.023 353.919q11.437.009 22.867.441.077 17.909-.097 35.818c-7.236-.298-15.413-.158-22.721-.189zM552.706 352.428c10.532.025 21.355.18 31.859-.16a430 430 0 0 0-.297 20.748l-31.562-.012a357 357 0 0 0 0-20.576M379.439 352.524c10.416.135 21.03.017 31.462.004l-.031 20.486-31.627-.004c-.159-6.506.103-13.913.196-20.486M439.504 352.404l31.054.025c-.121 6.825-.046 13.863-.058 20.707q-15.491-.107-30.978.243zM496.768 352.532q14.35.366 28.703.132l.001 20.179c-3.337.604-24.041.222-28.544.19zM318.853 352.611q13.566.061 27.134-.035l.031 20.347-27.247.015zM722.335 366.399l20.491.01c-.119 7.507.006 15.23.043 22.755l-20.687.047zM771.95 366.534c5.957.074 12.088-.01 18.059-.023l-.01 22.5-18.093.015zM240.901 336.988l21.678-.029-.035 16.121-21.661-.081zM291.543 337.204l20.913-.063-.021 15.85-20.926.096zM497.509 380.995l27.078.343.068 9.203-27.158-.032z"></path><path fill="#f4d35e" d="m343.277 403.728 75.661.209c12.731 0 25.801-.113 38.52.168 1.898.042 7.126.826 8.449 2.032 1.205 1.098 2.286 3.508 2.333 5.168.257 9.059.208 18.453.244 27.503l.204 56.046-.174 98.292c-.022 8.069.51 55.835-1.145 57.946-5.628 1.659-45.503.938-53.943.918l.016-52.76-.051-45.889c-7.722-.374-16.063-.26-23.842-.286l-.019 98.92-55.434-.02c-.288-12.658-.067-26.066-.159-38.833a6127 6127 0 0 1-.031-118.271l.107-52.068c-.005-9.354-.08-18.709.092-28.06.125-6.834 2.205-9.96 9.172-11.015"></path><path fill="#ff3434" d="M389.58 430.495q11.89.094 23.781.025c-.494 31.652-.783 67.911.166 99.427l-23.95-.146z"></path><path fill="#f4d35e" d="M710.117 417.615c13.407-.667 31.85-.123 45.632-.114l65.56-.211c5.056.03 10.609.394 14.333 4.343 3.869 4.102 3.811 8.017 3.844 13.372.045 7.194.028 14.432.02 21.648l-.265 60.115c-18.481-3.265-37.496-7.818-55.786-10.483l.17-61.725c-8.455.147-17.176.052-25.653.066l-.087 76.752c24.412 3.026 56.803 10.023 81.495 14.645.994 23.358.125 47.116.105 70.508-.008 9.06 1.04 57.971-.876 63.453-1.163 3.327-3.832 4.797-6.816 6.301-5.476 1.287-30.432.714-37.799.704l-92.101-.372c-.336-12.409-.044-26.069-.081-38.608a4708 4708 0 0 1-.087-64.108c18.296-.041 37.923-.182 56.161.336.366 22.912.015 46.791-.07 69.75l25.619.079-.043-80.557c-26.304-4.294-55.595-10.351-81.79-15.67-.47-40.86-.18-82.716-.079-123.622 2.563-3.934 4.205-5.244 8.594-6.602M568.486 404.118c14.69-.662 33.515-.115 48.521-.113l-.03 111.839c-8.646.118-18.621.16-27.17-.223.183 7.01-.031 14.67-.1 21.729 8.968.083 18.246-.276 27.357-.232q.255 49.369-.096 98.738c-17.788.311-36.987-.128-54.971-.102l.006-79.742-24.534.03-.041 79.872-6.079.045-49.837.046-.034-98.596 28.054-.144-.012-21.756c-8.991.381-18.77.254-27.817.248-.937-30.394-.179-64.102-.272-94.858l56.069.071-.228 79.736c7.907-.28 16.716-.123 24.692-.148-.001-12.084-.991-87.842.626-91.764 1.131-2.743 3.294-3.62 5.896-4.676M200.751 421.353l120.199.085.106 163.77-.083 51.853c-.02 9.27.028 18.618-.127 27.877-.032 1.888-.22 6.529-1.465 7.744-2.348 2.29-4.397 2.796-7.485 2.808-25.022.096-50.103-.113-75.121-.043l-28.864.116c-13.933.056-26.312 2.218-25.635-16.845.124-3.491.07-7.501.112-11.05l-.212-49.169c-.024-9.576-.314-20.982.404-30.344 1.878-3.155 4.013-5.975 7.911-6.388 5.642-.599 11.456-.355 17.143-.343l32.261.083-.017 83.474 23.863.05c.221-18.685-.251-37.683-.264-56.42l.028-136.093c-12.75.183-25.934 0-38.718-.012-.059-2.615-.022-5.365-.023-7.992l-24.045.086c-.192-7.629-.026-15.59.032-23.247"></path><path fill="#f4d35e" d="m481.782 652.637 135.137-.095c3.704 19.81 19.21 16.535 34.897 16.53l35.636.019c.11 24.868 14.691 23.381 33.306 23.405l26.389.017 91.859-.022.028 12.996-168.882.544.006-23.727-24.042.013.102 24.049c-11.58.265-23.865.095-35.497.117-.209-8.21-.048-16.78-.004-25.019l-16.256-.024-.024-13.827q-14.452.119-28.904-.062l-.031 13.893c5.879-.447 12.116-.372 18.034-.418l-.034 25.475q-16.296.02-32.592-.143c-.194-8.203-.068-16.641-.038-24.865l-17.74.031-.064-13.5-10.133.021a793 793 0 0 1-17.915-.155l.013 13.573 19.996-.037-.024 25.054q-16.996.12-33.994.05l.041-25.03-24.453-.007c-.119 8.412-.037 17.029-.052 25.458l-31.82-.175a621 621 0 0 1 .057-24.835 929 929 0 0 1-23.126-.147l-.125 25.185-41.057-.026c-.199-8.275-.044-17.088-.036-25.403l-23.308.015q.248 12.598.039 25.196l-163.976-.101c-.099-4.504-.048-9.197-.065-13.718 39.647-.525 79.49.393 119.156.049 18.612-.161 32.167-.966 32.29-24.456l88.812-.062c14.504.001 29.06.179 43.548-.244 9.057-.264 13.3-7.566 14.846-15.592M664.516 429.748l23.366-.054-.086 223.814-33.921.038-23.338.021q.666-111.838-.006-223.676zM630.891 373.076l56.698.082.117 44.826c-16.965.011-40.717.688-57.01-.443-.368-14.406.018-30.034.195-44.465"></path></svg>